<svg width="327" height="160" viewBox="0 0 327 160" fill="none" xmlns="http://www.w3.org/2000/svg">
<path d="M0 20C0 8.95431 8.9543 0 20 0H307C318.046 0 327 8.95431 327 20V160H0V20Z" fill="#382AE1"/>
<mask id="mask0_0_318" style="mask-type:luminance" maskUnits="userSpaceOnUse" x="0" y="0" width="327" height="160">
<path d="M0 20C0 8.95431 8.9543 0 20 0H307C318.046 0 327 8.95431 327 20V160H0V20Z" fill="white"/>
</mask>
<g mask="url(#mask0_0_318)">
<path fill-rule="evenodd" clip-rule="evenodd" d="M176.292 97.9416V108.511L178.46 109.632V191.679L23.1805 193.449V140.957H28.2771V90.4848H30.1284V83.5443H32.3411V90.4848H42.6228C42.6228 90.4848 42.4679 123.152 42.6228 123.329C42.7777 123.506 47.9406 123.329 47.9406 123.329V149.807H52.1448V55.5168H57.5069V50.3169H59.7196V55.5168H76.514V60.1635H82.9013V50.3169H85.114V60.1635H88.2486V77.4373H95.7718V108.415H104.623V136.531H109.262V78.0937H115.103V69.147H117.316V78.0937H133.388V45.7957H138.079V43.1404H156.791V33.4267H159.003V43.1404H160.228V45.7735H164.808V102.441L174.079 107.309V97.9416H176.292ZM11.5122 110.192H13.8355L18.5117 193.22H-5.81323L-1.12968 110.192H0.699481V107.175H11.5122V110.192Z" fill="#1E1FCD"/>
<path fill-rule="evenodd" clip-rule="evenodd" d="M324.532 124.102V134.671L326.7 135.792V217.839L171.421 219.609V167.117H176.517V116.645H178.368V109.704H180.581V116.645H190.863C190.863 116.645 190.708 149.312 190.863 149.489C191.018 149.666 196.181 149.489 196.181 149.489V175.967H200.385V81.6768H205.747V76.4769H207.96V81.6768H224.754V86.3235H231.141V76.4769H233.354V86.3235H236.489V103.597H244.012V134.575H252.863V162.691H257.502V104.254H263.343V95.307H265.556V104.254H281.628V71.9557H286.319V69.3004H305.031V59.5867H307.243V69.3004H308.468V71.9335H313.048V128.601L322.319 133.469V124.102H324.532ZM159.752 136.352H162.076L166.752 219.38H142.427L147.11 136.352H148.939V133.335H159.752V136.352Z" fill="#1E1FCD"/>
<path d="M163.313 20.2697C163.207 18.7314 156.319 23.2065 156.319 23.2065C156.319 23.2065 162.153 18.7314 161.653 17.6127C161.153 16.4939 154.579 21.3885 154.579 21.3885C154.579 21.3885 160.58 16.7736 159.653 15.788C158.726 14.8025 152.319 19.99 152.319 19.99C152.319 19.99 158.853 14.2497 156.359 14.1099C155.239 14.0499 146.445 20.0233 136.917 27.1954C139.584 30.5251 142.251 33.7415 145.132 36.8514C148.185 33.6949 150.592 31.1843 150.919 30.7648C151.899 29.5062 161.633 30.3453 161.673 28.807C161.713 27.2687 155.259 26.5694 155.259 26.5694C155.259 26.5694 163.42 21.808 163.313 20.2697Z" fill="white"/>
<path fill-rule="evenodd" clip-rule="evenodd" d="M144.871 37.0578C144.928 37.1187 145.008 37.1526 145.091 37.1511C145.166 37.1459 145.237 37.1154 145.291 37.0645C148.898 33.3353 150.725 31.4307 151.099 30.9513C151.471 30.4728 154.048 30.3325 156.126 30.2194L156.139 30.2187C159.706 30.0323 161.913 29.8591 161.913 28.8136C161.946 27.3752 158.206 26.6627 156.126 26.3763C158.399 25.0178 163.7 21.6882 163.6 20.2498C163.591 20.0274 163.46 19.828 163.26 19.7303C162.653 19.424 161.066 20.1033 159.499 20.9423C160.96 19.6038 162.213 18.1787 161.886 17.4795C161.811 17.3173 161.662 17.2009 161.486 17.1665C160.946 17.0267 159.773 17.586 158.519 18.3252C159.346 17.4529 159.966 16.6671 160.013 16.121C160.038 15.9244 159.975 15.7267 159.839 15.5816C159.266 14.9689 157.439 15.9079 155.612 17.1266C156.592 16.0145 157.339 14.909 157.126 14.3097C156.997 13.9806 156.665 13.7769 156.312 13.8102C154.739 13.8102 143.738 21.6216 136.691 26.949C136.627 27.0007 136.584 27.0742 136.571 27.1555C136.562 27.2368 136.586 27.3183 136.637 27.3819C139.698 31.2176 142.311 34.2876 144.871 37.0578ZM145.098 36.4052C142.645 33.7681 140.184 30.8447 137.311 27.2487C147.898 19.2975 155.372 14.4162 156.286 14.4628C156.406 14.4695 156.559 14.4961 156.559 14.5561C156.772 15.1487 154.392 17.7592 152.065 19.8103C152.009 19.8654 151.977 19.941 151.977 20.02C151.977 20.099 152.009 20.1746 152.065 20.2298C152.173 20.3555 152.36 20.3759 152.492 20.2764C155.746 17.6526 159.059 15.6349 159.433 16.0478V16.121C159.353 17.0333 156.292 19.717 154.379 21.1954C154.245 21.2984 154.219 21.4907 154.322 21.6249C154.425 21.7592 154.618 21.7845 154.752 21.6815C157.873 19.3441 160.913 17.5661 161.36 17.7858C161.586 18.2653 159.146 20.7093 156.139 23.0134C156.024 23.1166 156.004 23.2889 156.092 23.4156C156.18 23.5423 156.349 23.584 156.486 23.5128C159.613 21.4817 162.6 20.0234 163.013 20.3097C163.066 21.1355 159.019 24.0123 155.066 26.3031C154.954 26.371 154.898 26.5019 154.926 26.6294C154.951 26.7573 155.056 26.8542 155.186 26.8691C158.153 27.1954 161.326 28.0212 161.326 28.8003C161.313 29.3272 158.013 29.5089 156.186 29.6094L156.126 29.6127C153.052 29.7792 151.145 29.9124 150.639 30.5783C150.432 30.8247 149.325 32.0367 145.098 36.4052Z" fill="#231F20"/>
<path d="M111.222 50.0501C109.262 56.2366 121.103 84.8117 121.103 84.8117L135.771 66.705C135.444 66.1456 128.03 53.2666 128.03 53.2666C128.03 53.2666 138.971 43.1511 145.071 36.8514C142.204 33.7415 139.498 30.4984 136.857 27.1954C125.15 36.0123 112.302 46.6406 111.222 50.0501Z" fill="#231F20"/>
<path fill-rule="evenodd" clip-rule="evenodd" d="M121.029 85.1047H121.103C121.202 85.1156 121.3 85.0755 121.363 84.9981L136.031 66.8981C136.096 66.7968 136.096 66.6665 136.031 66.5652C135.731 66.0457 129.343 54.9713 128.397 53.3265C129.817 52.0146 139.664 42.8647 145.285 37.0578C145.387 36.9441 145.387 36.772 145.285 36.6583C142.731 33.9013 140.124 30.838 137.077 27.0156C136.977 26.8925 136.797 26.8719 136.671 26.969C124.916 35.7859 112.029 46.4608 110.915 49.9702C108.942 56.19 120.316 83.7595 120.803 84.9249C120.84 85.0213 120.927 85.09 121.029 85.1047ZM111.488 50.1367C112.569 46.7804 125.756 35.9391 136.824 27.6016C139.731 31.2376 142.238 34.181 144.691 36.8447C138.84 42.8368 128.71 52.2479 127.901 52.9996C127.871 53.0273 127.854 53.0432 127.85 53.0468C127.75 53.1415 127.725 53.2914 127.79 53.4131L135.424 66.6784L121.169 84.2389C119.669 80.5497 109.715 55.7305 111.488 50.1367Z" fill="#231F20"/>
<path d="M146.092 79.5908C147.292 87.8883 152.819 94.9072 158.819 101.32C162.413 105.129 166.82 109.005 172.081 108.759C174.594 108.632 176.954 107.553 179.148 106.328C184.641 103.282 189.554 99.2943 193.663 94.5476C191.995 94.5536 190.593 93.2999 190.416 91.6441C192.602 92.6657 195.177 92.3776 197.083 90.8983C201.163 87.6618 199.183 84.805 196.063 82.3943C191.184 78.6376 187.303 73.7417 184.762 68.1368C180.868 59.4397 173.134 47.8193 161.68 50.4697C150.665 53.0135 147.678 62.8826 146.158 72.6718C145.79 74.9618 145.768 77.2941 146.092 79.5908Z" fill="white"/>
<path fill-rule="evenodd" clip-rule="evenodd" d="M158.6 101.526C162.126 105.276 166.42 109.071 171.587 109.071H172.094C174.761 108.945 177.235 107.753 179.295 106.608C184.828 103.542 189.77 99.5172 193.889 94.7207C193.97 94.6318 193.989 94.5024 193.936 94.3944C193.885 94.2838 193.771 94.2153 193.649 94.2212C192.349 94.211 191.204 93.3633 190.816 92.1236C192.991 92.9153 195.421 92.5355 197.25 91.118C198.863 89.8261 199.67 88.4543 199.67 87.1224C199.657 85.5109 198.563 83.926 196.23 82.1213C191.387 78.3981 187.537 73.54 185.022 67.9769C176.801 49.6439 166.814 48.9314 161.586 50.1367C156.686 51.1629 152.481 54.28 150.079 58.6672C147.565 63.0224 146.505 68.3965 145.838 72.5918C145.47 74.9248 145.454 77.2998 145.792 79.6374C147.038 88.2545 152.966 95.5331 158.6 101.526ZM161.726 50.7294C162.745 50.4953 163.788 50.3769 164.833 50.3764C170.167 50.3764 177.861 53.4996 184.455 68.2566C187.013 73.9076 190.924 78.843 195.843 82.6274C197.99 84.2856 199.043 85.7639 199.043 87.1491C199.056 88.3144 198.316 89.4931 196.856 90.6585C195.045 92.0571 192.604 92.3294 190.529 91.3644C190.437 91.308 190.321 91.308 190.229 91.3644C190.137 91.4235 190.086 91.5287 190.096 91.6374C190.265 93.214 191.454 94.4907 193.016 94.774C189.031 99.31 184.295 103.128 179.015 106.061C177.014 107.174 174.621 108.332 172.081 108.452C166.92 108.719 162.607 104.896 159.06 101.127C153.472 95.2135 147.612 88.0214 146.392 79.5641C146.064 77.2883 146.08 74.9762 146.438 72.705C147.985 62.7561 150.905 53.2333 161.726 50.7294Z" fill="#231F20"/>
<path d="M222.252 105.635C221.785 107.48 214.125 121.145 214.125 121.145L224.125 126.545C224.125 126.545 233.173 111.402 233.946 110.397C234.72 109.391 241.28 100.661 242.174 97.5975C243.067 94.5342 236.76 92.2701 234.173 92.5165C231.586 92.7629 222.719 103.791 222.252 105.635Z" fill="white"/>
<path fill-rule="evenodd" clip-rule="evenodd" d="M223.972 126.812C224.014 126.838 224.062 126.852 224.112 126.852C224.2 126.848 224.281 126.803 224.332 126.732C224.352 126.703 224.794 125.967 225.48 124.823C227.94 120.723 233.545 111.382 234.14 110.616C234.143 110.612 234.162 110.587 234.196 110.542C234.88 109.638 241.505 100.883 242.414 97.7107C242.644 96.8428 242.412 95.9178 241.8 95.2601C240.153 93.269 236.053 92.0769 234.086 92.2434C231.379 92.4499 222.412 103.604 221.918 105.562C221.552 107.007 216.491 116.283 213.824 120.992C213.791 121.066 213.791 121.151 213.824 121.225C213.845 121.305 213.898 121.372 213.971 121.411L223.972 126.812ZM224.005 126.139L214.544 121.018C215.651 119.04 222.105 107.447 222.545 105.709C222.952 104.137 231.739 93.0292 234.18 92.8161C235.966 92.663 239.867 93.795 241.367 95.613C241.855 96.1147 242.044 96.8345 241.867 97.5109C241.067 100.301 235.22 108.212 233.693 110.21C232.966 111.156 225.225 124.095 224.005 126.139Z" fill="#231F20"/>
<path d="M219.378 111.542L210.444 122.423L191.176 109.524L182.968 124.787C182.968 124.787 210.257 145.251 214.124 143.294C217.991 141.336 229.706 117.189 229.706 117.189L219.378 111.542Z" fill="#231F20"/>
<path fill-rule="evenodd" clip-rule="evenodd" d="M182.788 125.02C185.455 127.018 207.877 143.706 213.504 143.706C213.758 143.721 214.012 143.676 214.244 143.573C218.165 141.595 229.506 118.328 229.986 117.336C230.052 117.195 230 117.028 229.866 116.949L219.505 111.302C219.381 111.233 219.226 111.264 219.138 111.376L210.371 122.03L191.336 109.278C191.267 109.232 191.182 109.217 191.102 109.238C191.022 109.258 190.954 109.312 190.916 109.384L182.708 124.648C182.642 124.775 182.676 124.931 182.788 125.02ZM214.011 143.034C210.978 144.559 191.049 130.461 183.342 124.701L191.276 109.944L210.284 122.67C210.408 122.758 210.58 122.731 210.671 122.61L219.452 111.915L229.346 117.316C228.099 119.886 217.538 141.243 214.011 143.034Z" fill="#231F20"/>
<path d="M227.559 84.9315L227.472 111.542H240.08V84.9315H227.559Z" fill="#231F20"/>
<path fill-rule="evenodd" clip-rule="evenodd" d="M227.472 111.862H240.08C240.159 111.862 240.235 111.83 240.29 111.774C240.345 111.717 240.375 111.641 240.373 111.562V84.9249C240.373 84.7631 240.242 84.6319 240.08 84.6319H227.559C227.396 84.6318 227.262 84.762 227.259 84.9249L227.179 111.562C227.177 111.641 227.207 111.717 227.262 111.774C227.318 111.83 227.393 111.862 227.472 111.862ZM239.773 111.276H227.772L227.839 85.2245H239.773V111.276Z" fill="#231F20"/>
<path d="M228.839 87.2823L228.772 108.192H238.787V87.2823H228.839Z" fill="white"/>
<path fill-rule="evenodd" clip-rule="evenodd" d="M228.786 108.492H238.787C238.868 108.496 238.948 108.466 239.007 108.409C239.067 108.353 239.1 108.274 239.1 108.192V87.2823C239.1 87.1168 238.966 86.9826 238.8 86.9826H228.852C228.685 86.9826 228.549 87.1157 228.546 87.2823L228.486 108.186C228.482 108.268 228.514 108.348 228.572 108.406C228.629 108.462 228.706 108.494 228.786 108.492ZM238.48 107.866H229.079L229.146 87.5886H238.48V107.866Z" fill="#231F20"/>
<path d="M221.705 107.02C221.705 107.02 219.825 98.057 222.645 96.6519C225.465 95.2468 235.16 93.6019 233.659 95.7995C232.159 97.9971 226.905 99.3556 226.905 99.3556C226.905 99.3556 227.986 102.492 226.799 104.716" fill="white"/>
<path d="M221.705 107.32C221.562 107.322 221.438 107.221 221.412 107.08C221.332 106.707 219.512 97.8705 222.512 96.3789C224.945 95.1735 232.799 93.6219 233.946 94.9271C234.198 95.2362 234.181 95.6837 233.906 95.9726C232.573 97.9704 228.459 99.2357 227.286 99.5687C227.532 100.441 228.092 102.938 227.066 104.896C226.984 105.042 226.8 105.096 226.652 105.016C226.506 104.934 226.451 104.752 226.526 104.603C227.639 102.525 226.626 99.522 226.612 99.4888C226.579 99.4123 226.579 99.3254 226.612 99.249C226.654 99.1742 226.723 99.119 226.806 99.0959C226.859 99.0959 231.966 97.764 233.386 95.6663C233.486 95.5198 233.513 95.4133 233.466 95.36C232.746 94.5342 225.465 95.6264 222.759 96.9582C220.618 98.0237 221.478 104.556 221.985 106.987C222.003 107.066 221.988 107.148 221.944 107.216C221.9 107.284 221.831 107.331 221.752 107.347L221.705 107.32Z" fill="#231F20"/>
<path d="M151.999 89.613L135.391 61.1378L116.722 81.8416L123.656 96.7718C123.656 96.7718 112.989 121.991 112.989 171.422C112.989 171.422 169.781 171.176 184.075 171.176L165.407 142.175C165.407 142.175 170.074 128.736 172.481 125.38L186.382 132.938L202.637 110.823L151.999 89.613Z" fill="#75ECCA"/>
<path d="M151.759 116.756C160.926 122.084 163.093 100.428 163.5 95.7396C163.686 94.45 163.609 93.1362 163.273 91.8772C162.746 90.279 161.513 89.0403 160.279 87.8816C158.806 86.5498 157.106 85.1513 155.099 85.0647C153.2 85.0944 151.426 86.0207 150.319 87.562C149.236 89.0915 148.458 90.814 148.025 92.6363C145.865 100.168 145.945 108.119 150.112 114.965C150.461 115.618 150.956 116.181 151.559 116.61L151.759 116.756Z" fill="#231F20"/>
<path fill-rule="evenodd" clip-rule="evenodd" d="M151.612 117.009C152.479 117.553 153.476 117.857 154.499 117.888C155.17 117.889 155.831 117.726 156.426 117.416C161.36 114.865 163.14 102.765 163.76 95.7795C163.946 94.4449 163.864 93.0868 163.52 91.7839C162.967 90.1125 161.7 88.8405 160.446 87.6885C158.906 86.2368 157.166 84.8783 155.113 84.7917C153.115 84.8092 151.247 85.7794 150.085 87.4021C148.982 88.9617 148.187 90.7182 147.745 92.5764C145.312 101.06 146.045 108.858 149.865 115.138C150.235 115.832 150.762 116.43 151.406 116.883L151.612 117.009ZM150.545 87.7617C151.561 86.3431 153.169 85.4652 154.913 85.3777H155.073C156.939 85.451 158.573 86.7429 160.066 88.1147C161.266 89.2201 162.473 90.4255 162.98 91.9638C163.299 93.1871 163.371 94.4614 163.193 95.7129C162.166 107.4 159.593 115.111 156.166 116.883C154.879 117.549 153.479 117.422 151.892 116.497L151.699 116.383C151.141 115.976 150.684 115.445 150.365 114.832C146.632 108.719 145.918 101.06 148.312 92.7362C148.732 90.9511 149.491 89.2627 150.545 87.7617Z" fill="#231F20"/>
<path d="M179.115 76.1479C179.961 79.2178 178.574 83.1269 176.494 85.3977C175.108 86.896 172.067 87.2956 171.454 84.8583C170.68 81.6159 171.25 78.199 173.034 75.3821C174.367 73.1912 176.921 71.9392 178.561 74.7561C178.805 75.1942 178.991 75.662 179.115 76.1479Z" fill="#231F20"/>
<path fill-rule="evenodd" clip-rule="evenodd" d="M172.974 86.8094C173.223 86.8686 173.478 86.8976 173.734 86.896C174.87 86.8903 175.954 86.4212 176.734 85.5975C178.735 83.3999 180.321 79.4043 179.401 76.0747C179.259 75.5647 179.053 75.0748 178.788 74.6163C177.948 73.1645 176.941 72.8382 176.241 72.8382C175.008 72.8316 173.687 73.7372 172.754 75.2356C170.947 78.1228 170.376 81.6132 171.167 84.9249C171.36 85.8462 172.061 86.5775 172.974 86.8094ZM173.254 75.5353C174.067 74.23 175.194 73.4243 176.208 73.4243L176.234 73.4176C177.028 73.4243 177.714 73.9237 178.281 74.896C178.522 75.3143 178.708 75.7619 178.835 76.2278C179.688 79.3177 178.154 83.1601 176.274 85.1979C175.469 86.0583 174.28 86.4498 173.121 86.2367C172.417 86.0629 171.878 85.4963 171.741 84.785C170.98 81.6239 171.526 78.2902 173.254 75.5353Z" fill="#231F20"/>
<path d="M164.813 89.8861C163.48 94.9937 162.146 106.628 153.646 100.541C152.775 99.8576 152.015 99.0446 151.392 98.1303C147.205 92.5564 148.398 89.0403 150.565 82.9204C151.499 80.2567 152.305 77.593 153.232 74.9293C154.159 72.2655 155.686 69.7617 156.953 67.2378C156.906 67.3244 161.12 67.9037 165.333 65.9925C169.547 64.0813 173.034 62.0968 173.034 62.0968C174.174 63.8016 175.408 65.0935 176.014 67.1179C176.574 69.0818 176.735 71.1376 176.488 73.1646C175.954 78.1391 173.961 83.5198 171.701 87.9615C169.44 92.4033 164.813 89.8861 164.813 89.8861Z" fill="white"/>
<path fill-rule="evenodd" clip-rule="evenodd" d="M153.466 100.801C155.119 101.986 156.606 102.585 157.939 102.585C158.413 102.582 158.883 102.494 159.326 102.326C162.499 101.13 163.701 95.9183 164.58 92.1049L164.587 92.077C164.727 91.4577 164.867 90.865 165 90.3389C166.281 90.9223 167.723 91.0515 169.087 90.7052C170.372 90.2727 171.419 89.3241 171.974 88.088C174.601 82.9404 176.308 77.6463 176.794 73.1912C177.042 71.1216 176.876 69.0235 176.308 67.018C175.824 65.6081 175.093 64.2957 174.147 63.1423C173.861 62.7494 173.574 62.3499 173.287 61.9237C173.197 61.7915 173.022 61.7484 172.881 61.8238C172.847 61.8438 169.354 63.8149 165.207 65.7128C162.67 66.8566 159.87 67.2894 157.106 66.9648C157.034 66.9278 156.951 66.9211 156.875 66.9462C156.798 66.9712 156.735 67.0259 156.699 67.0979C156.346 67.8038 155.973 68.5097 155.599 69.2156L155.599 69.2156C154.59 71.0226 153.71 72.8985 152.966 74.8294C152.472 76.2079 152.012 77.613 151.565 78.9781C151.542 79.0511 151.518 79.1243 151.494 79.1976C151.103 80.3947 150.7 81.6291 150.279 82.8339L150.276 82.8426C148.131 88.9107 146.834 92.5792 151.145 98.3234C151.788 99.2627 152.57 100.098 153.466 100.801ZM156.476 68.8619C156.701 68.4416 156.926 68.0214 157.139 67.5774C159.993 67.8996 162.881 67.4488 165.5 66.2722C169.04 64.654 172.107 62.9825 172.981 62.503C173.214 62.8427 173.461 63.1823 173.701 63.5086C174.612 64.607 175.321 65.8584 175.794 67.2045C176.343 69.1293 176.502 71.1443 176.261 73.1313C175.788 77.5131 174.094 82.734 171.501 87.8217C171.022 88.9069 170.11 89.7424 168.987 90.1258C167.638 90.4453 166.219 90.2729 164.987 89.6397C164.904 89.5985 164.806 89.5963 164.721 89.6336C164.637 89.6708 164.573 89.7438 164.547 89.8328C164.418 90.3103 164.294 90.8512 164.161 91.4279C164.121 91.5992 164.081 91.7736 164.04 91.9504C164.015 92.0532 163.991 92.1569 163.966 92.2616C163.096 95.9112 161.953 100.704 159.159 101.76C157.706 102.306 155.919 101.813 153.826 100.308C152.981 99.64 152.244 98.8473 151.639 97.9571C147.518 92.4699 148.699 89.1202 150.852 83.0336C151.217 81.9979 151.544 81.0011 151.891 79.9422C151.974 79.6871 152.059 79.4284 152.146 79.1646C152.222 78.9305 152.3 78.694 152.378 78.4561C152.752 77.3135 153.136 76.1382 153.539 75.0358C154.275 73.1305 155.144 71.2791 156.139 69.4953C156.25 69.2822 156.363 69.072 156.476 68.8619Z" fill="#231F20"/>
<path d="M163.413 94.8273C163.413 94.8273 159.286 93.8883 157.413 90.4588C155.539 87.0292 156.673 84.3988 156.673 84.3988C156.673 84.3988 160.273 88.5609 164.827 89.906L163.413 94.8273Z" fill="#231F20"/>
<path fill-rule="evenodd" clip-rule="evenodd" d="M163.346 95.1202H163.413C163.546 95.1223 163.664 95.0348 163.7 94.9071L165.08 89.9992C165.103 89.9242 165.094 89.8432 165.057 89.7743C165.019 89.7055 164.955 89.6546 164.88 89.633C160.486 88.3278 156.879 84.2523 156.879 84.2123C156.811 84.1398 156.711 84.105 156.613 84.1191C156.512 84.1337 156.426 84.1992 156.386 84.2922C156.339 84.4054 155.226 87.1091 157.146 90.6119C159.066 94.1147 163.173 95.0803 163.346 95.1202ZM157.659 90.3056C156.71 88.7019 156.398 86.8005 156.786 84.9781C157.779 86.0236 160.766 88.9138 164.453 90.0925L163.206 94.4543C162.28 94.1813 159.186 93.0892 157.659 90.3056Z" fill="#231F20"/>
<path d="M165.94 81.4953C165.1 81.4304 164.286 81.1754 163.56 80.7495C163.418 80.6686 163.369 80.4882 163.45 80.3466C163.531 80.205 163.711 80.1558 163.853 80.2367C164.367 80.5297 165.853 81.1957 166.52 80.7628C166.954 80.4831 166.48 77.7462 165.48 74.7694C165.429 74.615 165.512 74.448 165.667 74.3965C165.821 74.345 165.989 74.4285 166.04 74.583C166.64 76.361 167.914 80.5764 166.834 81.2423C166.566 81.4095 166.256 81.4972 165.94 81.4953Z" fill="#231F20"/>
<path d="M164.72 85.1047C164.028 85.1154 163.343 84.9649 162.72 84.6652C161.053 83.8394 160.053 81.9016 159.706 78.9049C159.691 78.7438 159.806 78.5994 159.966 78.5786C160.044 78.5692 160.123 78.5914 160.184 78.6402C160.245 78.689 160.285 78.7604 160.293 78.8383C160.606 81.6219 161.506 83.4066 162.96 84.1657C165.18 85.2645 168.014 83.5997 168.04 83.5864C168.107 83.545 168.188 83.5323 168.265 83.551C168.341 83.5698 168.407 83.6186 168.447 83.6863C168.53 83.8263 168.485 84.0065 168.347 84.0925C167.236 84.7133 165.992 85.0603 164.72 85.1047Z" fill="#231F20"/>
<path d="M165.033 71.8127C164.879 71.8131 164.751 71.6937 164.74 71.5397C164.693 70.8738 164.5 70.4675 164.153 70.2944C163.487 69.9481 162.24 70.5741 161.826 70.8471C161.69 70.9372 161.507 70.9 161.416 70.7639C161.326 70.6278 161.363 70.4444 161.5 70.3543C161.573 70.3077 163.28 69.2023 164.413 69.7683C165.015 70.1321 165.367 70.7982 165.327 71.4997C165.332 71.5775 165.306 71.6542 165.255 71.713C165.204 71.7717 165.131 71.8076 165.053 71.8127H165.033Z" fill="#231F20"/>
<path d="M172.427 75.1157C172.275 75.1164 172.148 75.0007 172.134 74.8494C172.134 74.8494 172.001 73.3843 171.167 72.8516C170.447 72.3788 169.607 73.4576 169.6 73.4709C169.553 73.533 169.483 73.5736 169.405 73.5836C169.327 73.5936 169.249 73.5722 169.187 73.5242C169.124 73.4777 169.082 73.4078 169.071 73.3303C169.059 73.2527 169.08 73.1738 169.127 73.1113C169.534 72.5785 170.547 71.7395 171.494 72.3588C172.567 73.0647 172.714 74.7428 172.721 74.8094C172.728 74.8872 172.704 74.9647 172.654 75.0247C172.604 75.0847 172.532 75.1223 172.454 75.129L172.427 75.1157Z" fill="#231F20"/>
<path d="M148.979 73.5042C148.874 74.5655 149.058 75.6354 149.512 76.6007C150.459 78.3521 152.792 79.0647 154.699 78.4986C159.679 77.0269 162.073 67.5641 158.306 63.8482C154.806 60.3987 150.832 65.846 150.012 69.0624C149.632 70.5741 149.032 71.9725 148.979 73.5042Z" fill="#231F20"/>
<path fill-rule="evenodd" clip-rule="evenodd" d="M149.252 76.7406C150.12 78.1721 151.69 79.0286 153.366 78.9848C153.838 78.9753 154.307 78.9014 154.759 78.765C157.159 78.0991 159.179 75.5353 160.04 72.1057C160.9 68.6762 160.306 65.4331 158.486 63.6418C157.607 62.6584 156.249 62.2518 154.972 62.5896C152.432 63.2888 150.279 66.7583 149.699 68.9958C149.592 69.4021 149.472 69.8083 149.352 70.2145C149.001 71.2764 148.777 72.3762 148.685 73.4909C148.57 74.6056 148.766 75.7304 149.252 76.7406ZM149.772 76.4676C149.339 75.5482 149.166 74.528 149.272 73.5175H149.279C149.376 72.4493 149.6 71.3964 149.945 70.381L149.945 70.381C150.065 69.9681 150.185 69.5552 150.292 69.1423C150.825 67.0979 152.859 63.8149 155.152 63.149C156.229 62.8693 157.37 63.2228 158.099 64.0613C159.766 65.7061 160.293 68.7628 159.493 71.9659C158.693 75.169 156.826 77.553 154.619 78.219C152.793 78.798 150.805 78.0797 149.772 76.4676Z" fill="#231F20"/>
<path d="M176.668 79.3577C176.543 79.3581 176.42 79.3235 176.314 79.2578C176.002 79.0657 175.904 78.6583 176.094 78.3455C176.168 78.2256 183.562 66.0791 184.828 58.5074C185.288 55.7638 184.068 52.9802 181.395 50.6561C177.741 47.4863 172.287 46.0679 168.427 47.2865C161.56 49.4575 157.906 65.2666 157.866 65.3998C157.783 65.7553 157.429 65.9781 157.073 65.8993C156.714 65.8197 156.487 65.4653 156.566 65.1068C156.719 64.4409 160.433 48.4119 168.027 46.0146C172.367 44.6494 178.221 46.1411 182.268 49.6506C185.308 52.3143 186.689 55.5108 186.149 58.7272C184.815 66.5585 177.541 78.532 177.234 79.0381C177.114 79.2357 176.899 79.3567 176.668 79.3577Z" fill="#231F20"/>
<path d="M212.818 173.673C210.428 173.666 208.054 173.281 205.784 172.535C203.078 171.576 200.575 170.122 198.403 168.246C194.703 165.256 191.442 161.687 188.289 158.257C186.289 156.066 184.222 153.802 182.062 151.711C175.294 145.158 168.574 141.669 162.06 141.349C153.299 140.91 145.532 145.911 138.451 151.378C137.784 151.911 137.064 152.463 136.357 153.023C130.63 157.558 124.136 162.692 116.136 161.487C110.682 160.668 106.448 156.912 103.861 153.909C97.494 146.51 94.527 135.928 96.0005 125.666C97.5606 114.612 103.728 106.821 114.335 102.505C123.116 98.936 131.404 93.9416 139.424 89.1136L139.491 89.0803C144.458 86.0836 149.732 82.2478 151.152 76.4942C151.181 76.3752 151.271 76.2806 151.388 76.2458C151.506 76.2111 151.633 76.2415 151.721 76.3257C151.81 76.4099 151.847 76.5351 151.819 76.654C150.339 82.6474 144.938 86.583 139.851 89.6463L139.791 89.6863C131.75 94.5276 123.436 99.5354 114.609 103.125C104.235 107.34 98.2074 114.952 96.6806 125.766C95.2538 135.835 98.134 146.19 104.361 153.442C106.875 156.366 110.975 160.015 116.229 160.801C123.943 161.966 130.044 157.138 135.937 152.477L138.038 150.825C145.225 145.278 153.112 140.204 162.086 140.657C168.754 140.99 175.621 144.539 182.508 151.205C184.682 153.316 186.755 155.587 188.762 157.784C191.896 161.22 195.136 164.77 198.803 167.727C200.91 169.55 203.338 170.965 205.964 171.902C214.971 174.805 223.965 171.949 232.759 163.405C245.807 150.699 253.161 131.44 252.928 110.503C252.821 100.727 250.994 93.0892 247.341 87.1424C245.867 84.7384 244.007 82.0614 240.98 80.7229C239.433 80.0569 235.806 79.8039 234.406 81.7684C233.873 82.5209 233.82 83.4066 233.74 84.532C233.74 85.0181 233.673 85.5642 233.6 86.1568C233.576 86.3407 233.407 86.4704 233.223 86.4465C233.039 86.4226 232.909 86.2542 232.933 86.0703C233.013 85.4976 233.039 84.9848 233.073 84.492C233.146 83.3067 233.213 82.2878 233.86 81.3821C235.486 79.098 239.473 79.3377 241.247 80.1169C244.474 81.5286 246.374 84.3056 247.914 86.7762C251.634 92.8295 253.488 100.581 253.601 110.483C253.835 131.58 246.414 151.038 233.233 163.864C226.552 170.397 219.705 173.667 212.818 173.673Z" fill="#231F20"/>
<path d="M148.365 26.9024C148.269 26.9016 148.177 26.8605 148.112 26.7892C147.984 26.6575 147.984 26.4481 148.112 26.3164C149.579 25.0445 151.032 24.4851 152.439 24.6449C153.633 24.8079 154.718 25.4259 155.466 26.3697C155.571 26.5194 155.539 26.7255 155.392 26.8358C155.321 26.8881 155.231 26.9098 155.144 26.896C155.056 26.8823 154.978 26.8342 154.926 26.7626C154.288 25.9678 153.374 25.4423 152.365 25.2909C151.152 25.151 149.872 25.6638 148.552 26.8092C148.501 26.8598 148.436 26.8926 148.365 26.9024Z" fill="#231F20"/>
<path d="M168.227 134.716C168.181 134.726 168.133 134.726 168.087 134.716C167.939 134.637 167.88 134.455 167.954 134.304L176.368 117.456C176.443 117.307 176.625 117.247 176.774 117.322C176.924 117.398 176.983 117.58 176.908 117.729L168.5 134.55C168.449 134.653 168.343 134.718 168.227 134.716Z" fill="#231F20"/>
<path d="M152.552 137.999C142.918 137.999 131.597 134.883 130.97 134.71C130.852 134.694 130.754 134.611 130.719 134.497C130.684 134.383 130.717 134.26 130.806 134.18C130.894 134.099 131.02 134.078 131.13 134.124C131.337 134.177 151.552 139.751 160.9 136.188C161.058 136.13 161.234 136.21 161.293 136.368C161.323 136.442 161.322 136.525 161.289 136.598C161.256 136.671 161.195 136.727 161.12 136.754C158.359 137.669 155.459 138.091 152.552 137.999Z" fill="#231F20"/>
<rect x="232.826" y="83.0669" width="1.45346" height="2.15761" fill="#231F20"/>
<path fill-rule="evenodd" clip-rule="evenodd" d="M232.826 85.5175H234.28C234.357 85.5175 234.432 85.4867 234.487 85.4317C234.542 85.3768 234.573 85.3022 234.573 85.2245V83.0669C234.573 82.9051 234.442 82.7739 234.28 82.7739H232.826C232.747 82.7721 232.671 82.8022 232.614 82.8573C232.558 82.9125 232.526 82.988 232.526 83.0669V85.2245C232.53 85.3874 232.663 85.5176 232.826 85.5175ZM233.986 84.9249H233.12V83.3599H233.986V84.9249Z" fill="#231F20"/>
<path d="M154.799 76.7806L154.319 76.3144C157.359 73.2928 158.055 68.6376 156.033 64.8604L156.606 64.5208C158.777 68.5581 158.043 73.5394 154.799 76.7806Z" fill="white"/>
<path d="M176.801 85.5176L176.181 85.2712C178.128 80.2567 177.634 76.5541 177.634 76.5208L178.301 76.4276C178.314 76.5675 178.814 80.3233 176.801 85.5176Z" fill="white"/>
<path d="M122.978 57.9734L127.808 53.0417L128.285 53.5074L123.454 58.4391L122.978 57.9734Z" fill="white"/>
<path d="M210.302 122.734L210.596 122.136L215.727 124.646L215.434 125.244L210.302 122.734Z" fill="white"/>
<path d="M39.0921 76.3599C38.812 76.2933 38.512 76.2467 38.2387 76.1534C37.365 75.9372 36.6705 75.2764 36.4118 74.4154C36.2266 73.6701 36.3724 72.8812 36.8119 72.2511C37.547 71.1374 38.7098 70.376 40.0255 70.1467C40.8856 69.9536 41.2723 70.0002 42.639 70.3332V54.2976L58.4271 51.1411V51.5007C58.4271 57.9203 58.4271 64.3332 58.4271 70.7527C58.4674 71.7723 58.0374 72.754 57.2604 73.4165C55.9855 74.6516 54.1432 75.1046 52.4399 74.6018C51.5575 74.406 50.8551 73.7403 50.6131 72.8704C50.417 72.1285 50.5611 71.338 51.0065 70.7128C51.7412 69.5925 52.911 68.8297 54.2334 68.6085C55.0957 68.42 55.9941 68.4847 56.8203 68.7949V57.7671L55.7002 57.9869C51.9443 58.7416 48.1951 59.4897 44.4525 60.2311C44.2459 60.271 44.2125 60.3509 44.2125 60.5374C44.2125 64.4397 44.2125 68.3354 44.2125 72.2311C44.2522 73.4451 43.6722 74.5962 42.6724 75.2877C41.9364 75.8436 41.0675 76.1972 40.1522 76.3133C40.1045 76.3258 40.0578 76.3414 40.0121 76.3599H39.0921Z" fill="#CD7DF3"/>
<path d="M288.926 122.32C288.926 122.193 288.926 122.067 288.926 121.94C288.885 121.591 288.754 121.258 288.546 120.974C288.208 120.482 287.77 120.067 287.26 119.756C286.75 119.429 286.181 119.203 285.586 119.09C285.207 119.017 284.818 119.017 284.439 119.09H284.339C284.336 119.046 284.336 119.001 284.339 118.957C284.406 118.697 284.473 118.444 284.546 118.197L285.88 113.536C286.366 111.845 286.86 110.153 287.346 108.462V108.362L286.88 108.322C285.602 108.254 284.327 108.482 283.153 108.988C282.055 109.441 281.138 110.244 280.546 111.272C280.379 111.565 280.252 111.878 280.112 112.191C280.019 112.391 279.946 112.604 279.859 112.81C279.855 112.839 279.855 112.868 279.859 112.897L280.026 112.797C280.555 112.449 281.11 112.142 281.686 111.878C282.574 111.479 283.548 111.305 284.519 111.372C284.938 111.413 285.35 111.504 285.746 111.645C285.743 111.678 285.743 111.711 285.746 111.745C284.937 114.55 284.135 117.354 283.339 120.155C283.329 120.206 283.329 120.258 283.339 120.308C283.396 120.804 283.606 121.269 283.939 121.64C284.361 122.155 284.895 122.567 285.499 122.846L286.02 123.072L286.5 123.212H286.633C287.029 123.292 287.437 123.292 287.833 123.212C288.167 123.165 288.472 122.999 288.693 122.746C288.765 122.645 288.832 122.54 288.893 122.433L288.926 122.32Z" fill="#CD7DF3"/>
<path d="M51.6919 128.871C51.6919 128.712 51.6919 128.545 51.7652 128.385C51.882 127.945 52.1118 127.544 52.432 127.22C52.97 126.659 53.6195 126.217 54.3388 125.921C55.0587 125.605 55.833 125.431 56.619 125.409C57.1204 125.393 57.6203 125.472 58.0925 125.642L58.2191 125.688C58.2224 125.631 58.2224 125.573 58.2191 125.515C58.2191 125.175 58.1525 124.849 58.1125 124.503C57.8591 122.403 57.6035 120.31 57.3457 118.223C57.0657 115.946 56.779 113.675 56.499 111.404V111.271C56.7057 111.271 56.9124 111.271 57.1057 111.317C58.7633 111.482 60.3604 112.027 61.7728 112.909C63.0857 113.716 64.0956 114.933 64.6464 116.372C64.7918 116.787 64.9143 117.209 65.0131 117.637C65.0931 117.917 65.1464 118.203 65.2131 118.489C65.2233 118.527 65.2233 118.566 65.2131 118.603L65.0198 118.436C64.4095 117.882 63.7588 117.375 63.0729 116.918C62.0173 116.224 60.8049 115.806 59.5459 115.699C58.9997 115.664 58.4511 115.695 57.9125 115.792C57.9157 115.835 57.9157 115.877 57.9125 115.919C58.3569 119.684 58.8125 123.457 59.2792 127.24C59.2925 127.303 59.2925 127.369 59.2792 127.433C59.1089 128.069 58.7427 128.635 58.2325 129.051C57.5864 129.628 56.8149 130.048 55.9789 130.276C55.7456 130.35 55.5056 130.403 55.2722 130.463L54.6055 130.543H54.4988C53.9741 130.576 53.4481 130.504 52.952 130.33C52.536 130.205 52.1802 129.933 51.9519 129.564C51.8745 129.42 51.8077 129.271 51.7519 129.118L51.6919 128.871Z" fill="#CD7DF3"/>
<path d="M211.338 69.8083C211.424 69.6351 211.498 69.4553 211.598 69.2955C211.908 68.843 212.331 68.4783 212.824 68.2367C213.654 67.8154 214.562 67.5706 215.491 67.5175C216.427 67.4435 217.369 67.5498 218.265 67.8305C218.839 68.0074 219.374 68.2947 219.838 68.6762L219.965 68.7761C219.997 68.7142 220.024 68.6496 220.045 68.583C220.145 68.1901 220.238 67.7972 220.325 67.3976L221.925 60.0058C222.499 57.3421 223.07 54.665 223.639 51.9747L223.672 51.8148C223.905 51.9147 224.125 52.0013 224.339 52.1012C226.139 52.9384 227.722 54.1779 228.966 55.7239C230.137 57.1493 230.803 58.9219 230.859 60.7649C230.859 61.2876 230.833 61.8099 230.779 62.3299C230.779 62.6828 230.706 62.9958 230.666 63.3754C230.662 63.4178 230.648 63.4588 230.626 63.4953L230.466 63.2355C229.996 62.3726 229.461 61.5466 228.866 60.7649C227.947 59.5644 226.741 58.6141 225.359 58.0013C224.757 57.7465 224.125 57.5697 223.479 57.4753C223.479 57.4753 223.479 57.4753 223.432 57.4753C223.425 57.5271 223.414 57.5783 223.399 57.6284L220.518 70.9071C220.503 70.9849 220.473 71.0593 220.432 71.1268C219.99 71.7768 219.356 72.2728 218.618 72.5452C217.66 72.9392 216.625 73.11 215.591 73.0447C215.298 73.0447 215.011 73.0047 214.718 72.9781L213.951 72.8183L213.824 72.765C213.22 72.5974 212.655 72.3098 212.164 71.9193C211.747 71.6107 211.452 71.1651 211.331 70.6607C211.305 70.4685 211.29 70.2751 211.284 70.0813L211.338 69.8083Z" fill="#CD7DF3"/>
<path d="M27.6803 36.9147C24.2466 36.9147 24.24 42.2421 27.6803 42.2421C31.1206 42.2421 31.1206 36.9147 27.6803 36.9147Z" fill="#698DFF"/>
<path d="M287.1 42.728C283.667 42.728 283.66 48.0555 287.1 48.0555C290.541 48.0555 290.541 42.728 287.1 42.728Z" fill="#698DFF"/>
<path d="M243.224 30.46C243.161 30.2399 243.044 30.0387 242.884 29.874L242.611 29.6676C242.409 29.5479 242.179 29.4835 241.944 29.4811H241.571C241.392 29.4731 241.214 29.5146 241.058 29.601C240.891 29.6511 240.741 29.7455 240.624 29.874C240.499 29.9914 240.405 30.1378 240.351 30.3002C240.267 30.4576 240.228 30.6349 240.238 30.813L240.284 31.1726C240.347 31.3932 240.464 31.5947 240.624 31.7586L240.898 31.965C241.1 32.0824 241.33 32.1444 241.564 32.1448H241.938C242.116 32.1552 242.294 32.116 242.451 32.0316C242.616 31.9771 242.764 31.8834 242.884 31.7586C243.12 31.498 243.257 31.1636 243.271 30.813C243.258 30.6998 243.238 30.5799 243.224 30.46Z" fill="#698DFF"/>
<path d="M83.9745 24.2333C81.8276 24.2333 81.8209 27.563 83.9745 27.563C86.128 27.563 86.1213 24.2333 83.9745 24.2333Z" fill="#698DFF"/>
<path d="M276.057 56.5634C273.91 56.5634 273.91 59.8931 276.057 59.8931C278.204 59.8931 278.204 56.5634 276.057 56.5634Z" fill="#698DFF"/>
</g>
</svg>
